<svg xmlns="http://www.w3.org/2000/svg" xmlns:xlink="http://www.w3.org/1999/xlink">
    <defs>
        <!-- https://api.iconify.design/lucide:camera.svg -->
        <symbol viewBox="0 0 24 24" id="camera">
            <g fill="none" stroke="currentColor" stroke-linecap="round" stroke-linejoin="round" stroke-width="2">
                <path d="M14.5 4h-5L7 7H4a2 2 0 0 0-2 2v9a2 2 0 0 0 2 2h16a2 2 0 0 0 2-2V9a2 2 0 0 0-2-2h-3z" />
                <circle cx="12" cy="13" r="3" />
            </g>
        </symbol>
        <!-- https://api.iconify.design/simple-icons:github.svg -->
        <symbol viewBox="0 0 24 24" id="github">
            <path fill="currentColor"
                d="M12 .297c-6.63 0-12 5.373-12 12c0 5.303 3.438 9.8 8.205 11.385c.6.113.82-.258.82-.577c0-.285-.01-1.04-.015-2.04c-3.338.724-4.042-1.61-4.042-1.61C4.422 18.07 3.633 17.7 3.633 17.7c-1.087-.744.084-.729.084-.729c1.205.084 1.838 1.236 1.838 1.236c1.07 1.835 2.809 1.305 3.495.998c.108-.776.417-1.305.76-1.605c-2.665-.3-5.466-1.332-5.466-5.93c0-1.31.465-2.38 1.235-3.22c-.135-.303-.54-1.523.105-3.176c0 0 1.005-.322 3.3 1.23c.96-.267 1.98-.399 3-.405c1.02.006 2.04.138 3 .405c2.28-1.552 3.285-1.23 3.285-1.23c.645 1.653.24 2.873.12 3.176c.765.84 1.23 1.91 1.23 3.22c0 4.61-2.805 5.625-5.475 5.92c.42.36.81 1.096.81 2.22c0 1.606-.015 2.896-.015 3.286c0 .315.21.69.825.57C20.565 22.092 24 17.592 24 12.297c0-6.627-5.373-12-12-12" />
        </symbol>
        <!-- https://api.iconify.design/simple-icons:facebook.svg -->
        <symbol viewBox="0 0 24 24" id="facebook">
            <path fill="currentColor"
                d="M9.101 23.691v-7.98H6.627v-3.667h2.474v-1.58c0-4.085 1.848-5.978 5.858-5.978c.401 0 .955.042 1.468.103a9 9 0 0 1 1.141.195v3.325a9 9 0 0 0-.653-.036a27 27 0 0 0-.733-.009c-.707 0-1.259.096-1.675.309a1.7 1.7 0 0 0-.679.622c-.258.42-.374.995-.374 1.752v1.297h3.919l-.386 2.103l-.287 1.564h-3.246v8.245C19.396 23.238 24 18.179 24 12.044c0-6.627-5.373-12-12-12s-12 5.373-12 12c0 5.628 3.874 10.35 9.101 11.647" />
        </symbol>
        <!-- https://api.iconify.design/simple-icons:linkedin.svg -->
        <symbol viewBox="0 0 24 24" id="linkedin">
            <path fill="currentColor"
                d="M13 21H9V9h4v2a4.618 4.618 0 0 1 3.525-1.763A4.5 4.5 0 0 1 21 13.75V21h-4v-6.75a2.265 2.265 0 0 0-2.247-1.944A1.815 1.815 0 0 0 13 14.25V21Zm-6 0H3V9h4v12ZM5 7a2 2 0 1 1 0-4a2 2 0 0 1 0 4Z">
            </path>
        </symbol>
        <!-- https://api.iconify.design/lucide:mail.svg -->
        <symbol viewBox="0 0 24 24" id="mail">
            <g fill="none" stroke="currentColor" stroke-linecap="round" stroke-linejoin="round" stroke-width="2">
                <rect width="20" height="16" x="2" y="4" rx="2" />
                <path d="m22 7l-8.97 5.7a1.94 1.94 0 0 1-2.06 0L2 7" />
            </g>
        </symbol>
        <!-- https://api.iconify.design/simple-icons:telegram.svg -->
        <symbol viewBox="0 0 24 24" id="telegram">
            <path fill="currentColor"
                d="M11.944 0A12 12 0 0 0 0 12a12 12 0 0 0 12 12a12 12 0 0 0 12-12A12 12 0 0 0 12 0zm4.962 7.224c.1-.002.321.023.465.14a.5.5 0 0 1 .171.325c.016.093.036.306.02.472c-.18 1.898-.962 6.502-1.36 8.627c-.168.9-.499 1.201-.82 1.23c-.696.065-1.225-.46-1.9-.902c-1.056-.693-1.653-1.124-2.678-1.8c-1.185-.78-.417-1.21.258-1.91c.177-.184 3.247-2.977 3.307-3.23c.007-.032.014-.15-.056-.212s-.174-.041-.249-.024q-.159.037-5.061 3.345q-.72.495-1.302.48c-.428-.008-1.252-.241-1.865-.44c-.752-.245-1.349-.374-1.297-.789q.04-.324.893-.663q5.247-2.286 6.998-3.014c3.332-1.386 4.025-1.627 4.476-1.635" />
        </symbol>
        <!-- https://api.iconify.design/simple-icons:tiktok.svg -->
        <symbol viewBox="0 0 24 24" id="tiktok">
            <path fill="currentColor"
                d="M12.525.02c1.31-.02 2.61-.01 3.91-.02c.08 1.53.63 3.09 1.75 4.17c1.12 1.11 2.7 1.62 4.24 1.79v4.03c-1.44-.05-2.89-.35-4.2-.97c-.57-.26-1.1-.59-1.62-.93c-.01 2.92.01 5.84-.02 8.75c-.08 1.4-.54 2.79-1.35 3.94c-1.31 1.92-3.58 3.17-5.91 3.21c-1.43.08-2.86-.31-4.08-1.03c-2.02-1.19-3.44-3.37-3.65-5.71c-.02-.5-.03-1-.01-1.49c.18-1.9 1.12-3.72 2.58-4.96c1.66-1.44 3.98-2.13 6.15-1.72c.02 1.48-.04 2.96-.04 4.44c-.99-.32-2.15-.23-3.02.37c-.63.41-1.11 1.04-1.36 1.75c-.21.51-.15 1.07-.14 1.61c.24 1.64 1.82 3.02 3.5 2.87c1.12-.01 2.19-.66 2.77-1.61c.19-.33.4-.67.41-1.06c.1-1.79.06-3.57.07-5.36c.01-4.03-.01-8.05.02-12.07z" />
        </symbol>
        <!-- https://api.iconify.design/simple-icons:wire.svg -->
        <symbol viewBox="0 0 24 24" id="wire">
            <path fill="currentColor"
                d="M24 14.475a7.395 7.395 0 0 1-7.38 7.41h-.016a7.3 7.3 0 0 1-4.5-1.605A7.498 7.498 0 0 1 0 14.475V2.82h1.41v11.655a6 6 0 0 0 9.585 4.815a7.383 7.383 0 0 1-1.815-4.814v-9.54a2.82 2.82 0 0 1 5.64 0v9.54a7.365 7.365 0 0 1-1.77 4.814a5.997 5.997 0 0 0 8.383-1.304a6.013 6.013 0 0 0 1.157-3.511V2.82H24v11.655zm-10.59-9.54a1.41 1.41 0 0 0-2.82 0v9.54A5.998 5.998 0 0 0 12 18.33a6.004 6.004 0 0 0 1.41-3.855v-9.54z" />
        </symbol>
        <!-- https://api.iconify.design/simple-icons:x.svg -->
        <symbol viewBox="0 0 24 24" id="x">
            <path fill="currentColor"
                d="M18.901 1.153h3.68l-8.04 9.19L24 22.846h-7.406l-5.8-7.584l-6.638 7.584H.474l8.6-9.83L0 1.154h7.594l5.243 6.932ZM17.61 20.644h2.039L6.486 3.24H4.298Z" />
        </symbol>
    </defs>
</svg>
